<svg width="125" height="72" viewBox="0 0 125 72" fill="none" xmlns="http://www.w3.org/2000/svg">
<path d="M32.2839 14.0916H92.167V41.7344H32.2839V14.0916Z" fill="#8CBCD6"/>
<path d="M35.0044 16.8554H40.4484V22.384H35.0044V16.8554ZM43.1703 16.8554H48.6142V22.384H43.1703V16.8554ZM51.3362 16.8554H56.7802V22.384H51.3362V16.8554ZM59.5022 16.8554H64.9458V22.384H59.5022V16.8554ZM67.6683 16.8554H73.112V22.384H67.6683V16.8554ZM75.8339 16.8554H81.2782V22.384H75.8339V16.8554ZM84.0001 16.8554H89.4438V22.384H84.0001V16.8554ZM35.0044 33.4411H40.4484V38.9696H35.0044V33.4411ZM43.1703 33.4411H48.6142V38.9696H43.1703V33.4411ZM51.3362 33.4411H73.112V38.9696H51.3362V33.4411ZM75.8339 33.4411H81.2782V38.9696H75.8339V33.4411ZM84.0001 33.4411H89.4438V38.9696H84.0001V33.4411ZM35.0044 25.1483H44.5313V30.6768H35.0044V25.1483ZM47.2533 25.1483H52.6972V30.6768H47.2533V25.1483ZM55.4192 25.1483H60.8632V30.6768H55.4192V25.1483ZM63.5851 25.1483H69.0293V30.6768H63.5851V25.1483ZM71.7511 25.1483H77.1948V30.6768H71.7511V25.1483ZM79.9167 25.1483H89.4438V30.6768H79.9167V25.1483Z" fill="#E1F5FE"/>
<path d="M75.3294 23.4964H62.495L71.246 0H56.2753L48.1094 29.025H59.8629L53.5533 55.2857L75.3294 23.4964Z" fill="#F9E000"/>
<path d="M6.02734 55.0698V52.5046H15.6099V55.0923C15.6099 55.356 15.5157 55.582 15.3274 55.7703C15.1391 55.9512 14.9168 56.0416 14.6607 56.0416C14.397 56.0416 14.1673 55.9474 13.9714 55.759C13.783 55.5707 13.6889 55.3485 13.6889 55.0923V54.403H11.7679V66.5505C11.7679 66.8147 11.6737 67.0403 11.4853 67.2287C11.297 67.4093 11.0747 67.5 10.8186 67.5C10.5474 67.5 10.3177 67.4093 10.1293 67.2287C9.94101 67.0403 9.84683 66.8147 9.84683 66.5505V54.403H7.92578V55.0698C7.92578 55.3334 7.8316 55.5594 7.64331 55.7478C7.46247 55.9285 7.24023 56.0189 6.97653 56.0189C6.7129 56.0189 6.48687 55.9285 6.29855 55.7478C6.11774 55.5594 6.02734 55.3334 6.02734 55.0698ZM28.4651 59.3751L23.3461 70.9463C23.1728 71.361 22.8714 71.568 22.4421 71.568H19.8091C19.5454 71.568 19.3194 71.478 19.1311 71.2967C18.9503 71.1161 18.8599 70.8898 18.8599 70.6191C18.8599 70.3549 18.9503 70.1331 19.1311 69.9518C19.3194 69.7712 19.5454 69.6812 19.8091 69.6812H21.8431L23.1427 66.6636H22.6793C22.2499 66.6636 21.9411 66.4418 21.7527 65.997L18.9051 59.3751V57.5445C18.9051 57.2808 18.9955 57.0586 19.1763 56.8778C19.3571 56.6894 19.5756 56.5953 19.8317 56.5953C20.0954 56.5953 20.3213 56.6894 20.5097 56.8778C20.7056 57.0586 20.8035 57.2808 20.8035 57.5445V58.957L23.3009 64.7428H23.9676L26.544 58.9796V57.5219C26.544 57.2733 26.6382 57.0548 26.8265 56.8665C27.0224 56.6706 27.2522 56.5727 27.5158 56.5727C27.772 56.5727 27.9942 56.6668 28.1826 56.8552C28.3709 57.0435 28.4651 57.2658 28.4651 57.5219V59.3751ZM33.6361 66.4148V70.6191C33.6361 70.8898 33.5419 71.1199 33.3535 71.3083C33.1728 71.4966 32.9505 71.5905 32.6868 71.5905C32.4231 71.5905 32.1934 71.4966 31.9975 71.3083C31.8092 71.1199 31.715 70.8898 31.715 70.6191V57.0812C31.715 56.825 31.8092 56.6028 31.9975 56.4145C32.1859 56.2261 32.4156 56.1319 32.6868 56.1319C32.9429 56.1319 33.1652 56.2261 33.3535 56.4145C33.5419 56.6028 33.6361 56.825 33.6361 57.0812V57.6914C34.5551 56.6668 35.4629 56.1546 36.3594 56.1546H36.8001C37.4706 56.1546 38.0883 56.4032 38.6533 56.9004L40.2354 58.2677C40.9284 58.8704 41.275 59.635 41.275 60.5616V63.5223C41.275 64.4567 40.9021 65.2436 40.1562 65.8838L38.6081 67.2178C38.0959 67.6845 37.448 67.9178 36.6645 67.9178H36.2464C35.5081 67.9178 34.8828 67.662 34.3705 67.1496L33.6361 66.4148ZM36.3142 65.997H36.8001C37.0336 65.997 37.2822 65.88 37.5459 65.6466L39.0262 64.3474C39.2748 64.1513 39.3992 63.8839 39.3992 63.5449V60.4825C39.3992 60.1812 39.2598 59.9137 38.981 59.6802L37.3877 58.3129C37.2069 58.1547 37.0111 58.0756 36.8001 58.0756H36.2464C36.0355 58.0756 35.7605 58.2489 35.4215 58.5954L34.0089 59.9966C33.7603 60.2452 33.6361 60.5239 33.6361 60.8328V63.2624C33.6361 63.5562 33.7754 63.8424 34.0541 64.1212L35.4215 65.4885C35.7605 65.8273 36.058 65.997 36.3142 65.997ZM54.1075 60.1661V62.4601C54.1075 62.7162 54.0134 62.9385 53.825 63.1268C53.6367 63.3151 53.4145 63.4093 53.1583 63.4093H46.446V63.963C46.446 64.287 46.5853 64.5621 46.8641 64.7878L47.4178 65.2513C47.7191 65.4846 48.0054 65.6016 48.2766 65.6016H53.1583C53.4145 65.6016 53.6367 65.6955 53.825 65.8838C54.0134 66.0651 54.1075 66.2869 54.1075 66.5505C54.1075 66.807 54.0096 67.0294 53.8137 67.2178C53.6254 67.4061 53.4069 67.5 53.1583 67.5H48.1523C47.8208 67.5 47.4705 67.4325 47.1014 67.2968C46.7397 67.1535 46.4723 67.0063 46.2991 66.8558L45.4515 66.1101C45.1879 65.8993 44.9657 65.6055 44.7848 65.2288C44.6116 64.8521 44.5249 64.5056 44.5249 64.189V59.8384C44.5249 59.5898 44.6191 59.2546 44.8075 58.8327C45.0033 58.4108 45.2481 58.0831 45.542 57.8496L46.333 57.2281C46.8528 56.8062 47.4291 56.5953 48.0619 56.5953H50.7287C51.3992 56.5953 52.0321 56.874 52.6272 57.4315L53.3391 58.1095C53.8514 58.569 54.1075 59.2546 54.1075 60.1661ZM46.4686 60.0192V61.4882H52.2317V60.1661C52.2317 59.812 52.1225 59.5408 51.904 59.3525L51.3503 58.8666C51.064 58.633 50.8079 58.5163 50.5818 58.5163H48.1975C47.9037 58.5163 47.6363 58.618 47.3952 58.8214L46.8415 59.2847C46.5929 59.4731 46.4686 59.7179 46.4686 60.0192ZM70.1673 66.5505V53.4312C70.1673 53.1751 70.2579 52.9528 70.4385 52.7645C70.6269 52.5762 70.8532 52.482 71.1168 52.482C71.3726 52.482 71.595 52.5762 71.7834 52.7645C71.9718 52.9528 72.0656 53.1751 72.0656 53.4312V59.0248H77.8513V53.4312C77.8513 53.1751 77.942 52.9528 78.1226 52.7645C78.311 52.5762 78.5373 52.482 78.8008 52.482C79.0644 52.482 79.2868 52.5762 79.4675 52.7645C79.6558 52.9528 79.7497 53.1826 79.7497 53.4538V66.5505C79.7497 66.807 79.652 67.0294 79.4559 67.2178C79.2675 67.4061 79.0496 67.5 78.8008 67.5C78.5295 67.5 78.3033 67.4093 78.1226 67.2287C77.942 67.0403 77.8513 66.8147 77.8513 66.5505V60.9232H72.0881V66.5505C72.0881 66.807 71.9904 67.0294 71.7943 67.2178C71.606 67.4061 71.3803 67.5 71.1168 67.5C70.8603 67.5 70.6385 67.4093 70.4501 67.2287C70.2618 67.0403 70.1673 66.8147 70.1673 66.5505ZM92.6049 60.1661V62.4601C92.6049 62.7162 92.511 62.9385 92.3227 63.1268C92.1343 63.3151 91.9119 63.4093 91.656 63.4093H84.9433V63.963C84.9433 64.287 85.0828 64.5621 85.3618 64.7878L85.9153 65.2513C86.2168 65.4846 86.5029 65.6016 86.7742 65.6016H91.656C91.9119 65.6016 92.1343 65.6955 92.3227 65.8838C92.511 66.0651 92.6049 66.2869 92.6049 66.5505C92.6049 66.807 92.5072 67.0294 92.3111 67.2178C92.1228 67.4061 91.9042 67.5 91.656 67.5H86.6501C86.3184 67.5 85.968 67.4325 85.599 67.2968C85.2371 67.1535 84.9697 67.0063 84.7968 66.8558L83.9488 66.1101C83.6853 65.8993 83.4635 65.6055 83.2822 65.2288C83.1093 64.8521 83.0225 64.5056 83.0225 64.189V59.8384C83.0225 59.5898 83.117 59.2546 83.3053 58.8327C83.5008 58.4108 83.7457 58.0831 84.0395 57.8496L84.8308 57.2281C85.3503 56.8062 85.9269 56.5953 86.5595 56.5953H89.226C89.8965 56.5953 90.5298 56.874 91.125 57.4315L91.8367 58.1095C92.349 58.569 92.6049 59.2546 92.6049 60.1661ZM84.9665 60.0192V61.4882H90.729V60.1661C90.729 59.812 90.6198 59.5408 90.4018 59.3525L89.8477 58.8666C89.5616 58.633 89.3058 58.5163 89.0795 58.5163H86.6951C86.4013 58.5163 86.1339 58.618 85.8928 58.8214L85.3393 59.2847C85.0905 59.4731 84.9665 59.7179 84.9665 60.0192ZM95.8777 66.5505V57.5445C95.8777 57.2808 95.9683 57.0548 96.149 56.8665C96.3373 56.6706 96.563 56.5727 96.8272 56.5727C97.0908 56.5727 97.3125 56.6668 97.4938 56.8552C97.6822 57.0435 97.776 57.2733 97.776 57.5445V58.731L99.324 57.4089C99.9643 56.8665 100.59 56.5953 101.2 56.5953H102.59C103.373 56.5953 104.044 56.874 104.601 57.4315C105.159 57.989 105.438 58.6594 105.438 59.4429V59.9514C105.438 60.2226 105.344 60.4524 105.155 60.6408C104.974 60.829 104.752 60.9232 104.488 60.9232C104.225 60.9232 103.999 60.8328 103.811 60.6521C103.63 60.4637 103.539 60.2377 103.539 59.974V59.4429C103.539 59.1792 103.445 58.957 103.256 58.7762C103.076 58.5879 102.854 58.4937 102.59 58.4937H101.358C101.094 58.4937 100.801 58.633 100.477 58.9118L97.776 61.251V66.5505C97.776 66.8147 97.6822 67.0403 97.4938 67.2287C97.3055 67.4093 97.083 67.5 96.8272 67.5C96.563 67.5 96.3373 67.4093 96.149 67.2287C95.9683 67.0403 95.8777 66.8147 95.8777 66.5505ZM118.27 60.0192V64.0308C118.27 64.8823 117.867 65.6691 117.061 66.3923C116.263 67.1156 115.438 67.4775 114.586 67.4775H112.36C111.494 67.4775 110.665 67.1117 109.874 66.3814C109.083 65.6428 108.688 64.8598 108.688 64.0308V60.0192C108.688 59.1905 109.072 58.4108 109.841 57.6801C110.616 56.9418 111.456 56.5727 112.36 56.5727H114.586C115.438 56.5576 116.263 56.9117 117.061 57.6349C117.867 58.3581 118.27 59.1529 118.27 60.0192ZM110.609 60.0983V63.9404C110.609 64.287 110.733 64.5621 110.982 64.7653L111.693 65.3753C111.851 65.511 112.074 65.5791 112.36 65.5791H114.564C114.888 65.5791 115.181 65.4621 115.445 65.2288L116.022 64.7203C116.255 64.5396 116.372 64.287 116.372 63.963V60.1209C116.372 59.7442 116.255 59.4655 116.022 59.2847L115.355 58.7536C115.129 58.5653 114.865 58.4711 114.564 58.4711H112.598C112.168 58.4711 111.837 58.5728 111.603 58.7762L110.959 59.3299C110.725 59.5258 110.609 59.7819 110.609 60.0983Z" fill="white"/>
</svg>
